<svg width="118" height="13" viewBox="0 0 118 13" xmlns="http://www.w3.org/2000/svg">
    <g fill-rule="nonzero" fill="none">
        <path d="M8.56 3.616a2.448 2.448 0 0 0-.904-.688c-.357-.16-.77-.24-1.24-.24s-.904.09-1.304.272a3.12 3.12 0 0 0-1.04.76 3.542 3.542 0 0 0-.688 1.16 4.173 4.173 0 0 0-.248 1.456c0 .533.083 1.021.248 1.464.165.443.392.827.68 1.152.288.325.627.579 1.016.76.39.181.808.272 1.256.272.512 0 .965-.107 1.36-.32.395-.213.72-.512.976-.896l2.08 1.552a4.331 4.331 0 0 1-1.824 1.488c-.736.32-1.493.48-2.272.48a6.979 6.979 0 0 1-2.448-.416 5.604 5.604 0 0 1-1.936-1.192A5.404 5.404 0 0 1 1 8.8C.696 8.064.544 7.243.544 6.336S.696 4.608 1 3.872a5.404 5.404 0 0 1 1.272-1.88A5.604 5.604 0 0 1 4.208.8 6.979 6.979 0 0 1 6.656.384c.32 0 .653.03 1 .088.347.059.688.152 1.024.28.336.128.659.299.968.512.31.213.587.475.832.784L8.56 3.616zM11.504 6.336c0-.907.152-1.728.456-2.464a5.404 5.404 0 0 1 1.272-1.88A5.604 5.604 0 0 1 15.168.8a6.979 6.979 0 0 1 2.448-.416c.885 0 1.701.139 2.448.416A5.604 5.604 0 0 1 22 1.992a5.404 5.404 0 0 1 1.272 1.88c.304.736.456 1.557.456 2.464s-.152 1.728-.456 2.464A5.404 5.404 0 0 1 22 10.68a5.604 5.604 0 0 1-1.936 1.192 6.979 6.979 0 0 1-2.448.416 6.979 6.979 0 0 1-2.448-.416 5.604 5.604 0 0 1-1.936-1.192A5.404 5.404 0 0 1 11.96 8.8c-.304-.736-.456-1.557-.456-2.464zm2.592 0c0 .533.083 1.021.248 1.464a3.25 3.25 0 0 0 1.824 1.912c.432.181.915.272 1.448.272.533 0 1.016-.09 1.448-.272A3.25 3.25 0 0 0 20.888 7.8c.165-.443.248-.93.248-1.464 0-.523-.083-1.008-.248-1.456a3.338 3.338 0 0 0-.712-1.16 3.25 3.25 0 0 0-1.112-.76 3.707 3.707 0 0 0-1.448-.272c-.533 0-1.016.09-1.448.272a3.25 3.25 0 0 0-1.112.76c-.31.325-.547.712-.712 1.16a4.173 4.173 0 0 0-.248 1.456zM34.976 7.632c0 .672-.101 1.29-.304 1.856a4.084 4.084 0 0 1-.904 1.472 4.14 4.14 0 0 1-1.496.976c-.597.235-1.285.352-2.064.352-.79 0-1.483-.117-2.08-.352a4.14 4.14 0 0 1-1.496-.976 4.084 4.084 0 0 1-.904-1.472 5.464 5.464 0 0 1-.304-1.856V.672h2.496v6.864c0 .352.056.677.168.976.112.299.27.557.472.776.203.219.445.39.728.512.283.123.59.184.92.184.33 0 .635-.061.912-.184s.517-.293.72-.512c.203-.219.36-.477.472-.776.112-.299.168-.624.168-.976V.672h2.496v6.96zM37.28.672h4.384c.576 0 1.123.056 1.64.168.517.112.97.299 1.36.56.39.261.699.613.928 1.056.23.443.344.995.344 1.656 0 .8-.208 1.48-.624 2.04-.416.56-1.024.915-1.824 1.064L46.368 12h-2.992l-2.368-4.528h-1.232V12H37.28V.672zm2.496 4.688h1.472c.224 0 .461-.008.712-.024a2.23 2.23 0 0 0 .68-.144c.203-.08.37-.205.504-.376.133-.17.2-.41.2-.72 0-.288-.059-.517-.176-.688a1.173 1.173 0 0 0-.448-.392 1.987 1.987 0 0 0-.624-.184 5.09 5.09 0 0 0-.688-.048h-1.632V5.36zM53.248 3.44a1.778 1.778 0 0 0-.824-.568 2.953 2.953 0 0 0-.984-.184c-.181 0-.368.021-.56.064-.192.043-.373.11-.544.2-.17.09-.31.21-.416.36a.911.911 0 0 0-.16.544c0 .341.128.603.384.784.256.181.579.336.968.464.39.128.808.256 1.256.384.448.128.867.31 1.256.544.39.235.712.55.968.944.256.395.384.923.384 1.584 0 .63-.117 1.179-.352 1.648-.235.47-.552.859-.952 1.168-.4.31-.864.539-1.392.688a6.116 6.116 0 0 1-1.672.224 6.066 6.066 0 0 1-2.048-.336 5.132 5.132 0 0 1-1.76-1.088l1.776-1.952c.256.341.579.605.968.792.39.187.792.28 1.208.28.203 0 .408-.024.616-.072.208-.048.395-.12.56-.216.165-.096.299-.219.4-.368a.918.918 0 0 0 .152-.528c0-.341-.13-.61-.392-.808a3.613 3.613 0 0 0-.984-.504 30.493 30.493 0 0 0-1.28-.416 5.748 5.748 0 0 1-1.28-.56 3.085 3.085 0 0 1-.984-.928c-.261-.384-.392-.89-.392-1.52 0-.608.12-1.141.36-1.6.24-.459.56-.843.96-1.152.4-.31.861-.541 1.384-.696a5.665 5.665 0 0 1 1.616-.232c.64 0 1.259.09 1.856.272a4.28 4.28 0 0 1 1.616.912L53.248 3.44zM56.928.672h7.696v2.304h-5.2v2.112h4.912v2.304h-4.912v2.304h5.488V12h-7.984z" fill="#FFBF00"/>
        <path fill="#0057FF" d="M65.728.672h2.72l1.808 7.264h.032L72.656.672h2.32l2.352 7.456h.032L79.264.672h2.528L78.48 12h-2.224L73.76 4.16h-.032L71.232 12h-2.144zM82.304 6.336c0-.907.152-1.728.456-2.464a5.404 5.404 0 0 1 1.272-1.88A5.604 5.604 0 0 1 85.968.8a6.979 6.979 0 0 1 2.448-.416c.885 0 1.701.139 2.448.416A5.604 5.604 0 0 1 92.8 1.992a5.404 5.404 0 0 1 1.272 1.88c.304.736.456 1.557.456 2.464s-.152 1.728-.456 2.464a5.404 5.404 0 0 1-1.272 1.88 5.604 5.604 0 0 1-1.936 1.192 6.979 6.979 0 0 1-2.448.416 6.979 6.979 0 0 1-2.448-.416 5.604 5.604 0 0 1-1.936-1.192A5.404 5.404 0 0 1 82.76 8.8c-.304-.736-.456-1.557-.456-2.464zm2.592 0c0 .533.083 1.021.248 1.464a3.25 3.25 0 0 0 1.824 1.912c.432.181.915.272 1.448.272.533 0 1.016-.09 1.448-.272A3.25 3.25 0 0 0 91.688 7.8c.165-.443.248-.93.248-1.464 0-.523-.083-1.008-.248-1.456a3.338 3.338 0 0 0-.712-1.16 3.25 3.25 0 0 0-1.112-.76 3.707 3.707 0 0 0-1.448-.272c-.533 0-1.016.09-1.448.272a3.25 3.25 0 0 0-1.112.76c-.31.325-.547.712-.712 1.16a4.173 4.173 0 0 0-.248 1.456zM96.224.672h4.384c.576 0 1.123.056 1.64.168.517.112.97.299 1.36.56.39.261.699.613.928 1.056.23.443.344.995.344 1.656 0 .8-.208 1.48-.624 2.04-.416.56-1.024.915-1.824 1.064l2.88 4.784h-2.992l-2.368-4.528H98.72V12h-2.496V.672zM98.72 5.36h1.472c.224 0 .461-.008.712-.024a2.23 2.23 0 0 0 .68-.144c.203-.08.37-.205.504-.376.133-.17.2-.41.2-.72 0-.288-.059-.517-.176-.688a1.173 1.173 0 0 0-.448-.392 1.987 1.987 0 0 0-.624-.184 5.09 5.09 0 0 0-.688-.048H98.72V5.36zM106.688.672h2.496v4.704l4.4-4.704h3.264l-5.04 5.264L117.28 12h-3.488l-4.608-5.376V12h-2.496z"/>
    </g>
</svg>
